HIERARCHY
ROOT Hips
{
	OFFSET 0.000000 0.000000 0.000000
	CHANNELS 6 Xposition Yposition Zposition Xrotation Yrotation Zrotation
	JOINT LeftUpLeg_virtual
	{
		OFFSET 0.000000 0.000000 0.000000
		CHANNELS 3 Xrotation Yrotation Zrotation
		JOINT LeftUpLeg
		{
			OFFSET 15.427100 -6.655098 0.678600
			CHANNELS 3 Xrotation Yrotation Zrotation
			JOINT LeftLeg
			{
				OFFSET 4.081073 -39.591068 13.024000
				CHANNELS 3 Xrotation Yrotation Zrotation
				JOINT LeftFoot
				{
					OFFSET -4.081074 -37.707932 -15.979700
					CHANNELS 3 Xrotation Yrotation Zrotation
					JOINT LeftToeBase
					{
						OFFSET 5.346399 -15.068900 20.645000
						CHANNELS 3 Xrotation Yrotation Zrotation
						JOINT LeftToe_End
						{
							OFFSET 2.754700 0.931300 11.300900
							CHANNELS 3 Xrotation Yrotation Zrotation
							End Site
							{
								OFFSET 0 0 0
							}
						}
					}
				}
			}
		}
	}
	JOINT RightUpLeg_virtual
	{
		OFFSET 0.000000 0.000000 0.000000
		CHANNELS 3 Xrotation Yrotation Zrotation
		JOINT RightUpLeg
		{
			OFFSET -15.569500 -6.655098 0.678600
			CHANNELS 3 Xrotation Yrotation Zrotation
			JOINT RightLeg
			{
				OFFSET -4.081825 -39.591045 13.023800
				CHANNELS 3 Xrotation Yrotation Zrotation
				JOINT RightFoot
				{
					OFFSET 4.081824 -37.707954 -15.979600
					CHANNELS 3 Xrotation Yrotation Zrotation
					JOINT RightToeBase
					{
						OFFSET -5.346400 -15.068900 20.645000
						CHANNELS 3 Xrotation Yrotation Zrotation
						JOINT RightToe_End
						{
							OFFSET -2.754700 0.931300 11.300900
							CHANNELS 3 Xrotation Yrotation Zrotation
							End Site
							{
								OFFSET 0 0 0
							}
						}
					}
				}
			}
		}
	}
	JOINT Spine_virtual
	{
		OFFSET 0.000000 0.000000 0.000000
		CHANNELS 3 Xrotation Yrotation Zrotation
		JOINT Spine
		{
			OFFSET -0.279200 12.230698 -2.892100
			CHANNELS 3 Xrotation Yrotation Zrotation
			JOINT Spine1
			{
				OFFSET -0.232667 10.192268 -1.242267
				CHANNELS 3 Xrotation Yrotation Zrotation
				JOINT Spine1_split
				{
					OFFSET -0.232667 10.192268 -1.242267
					CHANNELS 3 Xrotation Yrotation Zrotation
					JOINT Spine2
					{
						OFFSET -0.232667 10.192268 -1.242267
						CHANNELS 3 Xrotation Yrotation Zrotation
						JOINT Neck_virtual
						{
							OFFSET 0.000000 0.000000 0.000000
							CHANNELS 3 Xrotation Yrotation Zrotation
							JOINT Neck
							{
								OFFSET -0.418800 17.814194 8.416900
								CHANNELS 3 Xrotation Yrotation Zrotation
								JOINT Head
								{
									OFFSET 0.000000 7.031097 3.806800
									CHANNELS 3 Xrotation Yrotation Zrotation
									JOINT HeadTop_End
									{
										OFFSET 0.000000 24.646606 12.978600
										CHANNELS 3 Xrotation Yrotation Zrotation
										End Site
										{
											OFFSET 0 0 0
										}
									}
								}
							}
						}
						JOINT LeftShoulder_virtual
						{
							OFFSET 0.000000 0.000000 0.000000
							CHANNELS 3 Xrotation Yrotation Zrotation
							JOINT LeftShoulder
							{
								OFFSET 8.476499 7.247704 -3.868750
								CHANNELS 3 Xrotation Yrotation Zrotation
								JOINT LeftShoulder_split
								{
									OFFSET 8.476499 7.247704 -3.868750
									CHANNELS 3 Xrotation Yrotation Zrotation
									JOINT LeftArm
									{
										OFFSET 9.308998 -2.777710 0.208600
										CHANNELS 3 Xrotation Yrotation Zrotation
										JOINT LeftForeArm
										{
											OFFSET 29.972298 0.000000 0.000000
											CHANNELS 3 Xrotation Yrotation Zrotation
											JOINT LeftHand
											{
												OFFSET 26.026505 0.000000 0.000000
												CHANNELS 3 Xrotation Yrotation Zrotation
												End Site
												{
													OFFSET 0 0 0
												}
											}
										}
									}
								}
							}
						}
						JOINT RightShoulder_virtual
						{
							OFFSET 0.000000 0.000000 0.000000
							CHANNELS 3 Xrotation Yrotation Zrotation
							JOINT RightShoulder
							{
								OFFSET -7.570500 7.247704 -3.868750
								CHANNELS 3 Xrotation Yrotation Zrotation
								JOINT RightShoulder_split
								{
									OFFSET -7.570500 7.247704 -3.868750
									CHANNELS 3 Xrotation Yrotation Zrotation
									JOINT RightArm
									{
										OFFSET -9.308998 -2.777710 0.208500
										CHANNELS 3 Xrotation Yrotation Zrotation
										JOINT RightForeArm
										{
											OFFSET -29.972300 0.000000 0.000000
											CHANNELS 3 Xrotation Yrotation Zrotation
											JOINT RightHand
											{
												OFFSET -26.026505 0.000000 0.000000
												CHANNELS 3 Xrotation Yrotation Zrotation
												End Site
												{
													OFFSET 0 0 0
												}
											}
										}
									}
								}
							}
						}
					}
				}
			}
		}
	}
}
MOTION
Frames: 4
Frame Time: 0.03333333
10.207280 60.750946 58.483166 0.000000 0.000000 0.000000 -14.680040 -44.296598 -8.503643 -48.946379 -15.771463 36.376181 54.451057 -9.718903 2.677106 2.098093 -15.305745 -32.622425 -3.282696 0.478437 1.126253 0.000000 0.000000 0.000000 -15.915965 -40.552121 -8.083228 -14.675520 1.436566 -56.147577 73.157227 21.435878 -2.436633 -9.572239 -7.379059 21.899632 -20.966099 -1.754820 8.864171 0.000000 0.000000 0.000000 -15.063204 -39.462791 -10.098161 26.500883 3.569312 -9.965868 -0.243451 0.955734 0.658849 1.251435 -2.525106 1.400333 0.000000 0.000000 0.000000 0.877907 0.902924 1.129716 1.889942 13.878792 1.158088 1.249330 22.879558 -5.467111 0.000000 0.000000 0.000000 0.303362 0.958881 1.098133 1.242433 2.343304 -9.234803 -0.002907 -2.205156 1.904628 -58.477204 3.862786 -43.099030 -177.963502 -66.303604 -176.868910 0.000000 0.000000 0.000000 -0.109995 0.604794 0.970247 3.405187 11.675129 -3.236165 -7.843320 -1.980456 1.485484 -46.145615 21.875475 85.934121 -172.639288 66.307408 171.239454 0.000000 0.000000 0.000000 
9.660633 61.223785 55.513443 0.000000 0.000000 0.000000 -14.335310 -44.317023 -6.870206 -46.156892 -15.033233 36.360317 46.887965 -10.075857 2.536910 6.748850 -15.646447 -34.202097 -2.755162 0.523459 0.879868 0.000000 0.000000 0.000000 -16.371926 -40.028378 -6.721196 -12.771753 -0.654053 -56.625280 72.646725 21.139348 -3.245969 -17.340488 -10.728498 24.771535 -17.221830 -0.364600 5.727393 0.000000 0.000000 0.000000 -15.911827 -40.029031 -9.263728 25.207988 4.763184 -9.025265 0.321947 1.105002 -0.041959 0.642700 -2.214051 1.481906 0.000000 0.000000 0.000000 1.287331 1.015332 0.451317 2.296808 13.738992 0.678268 3.580759 22.306242 -5.813224 0.000000 0.000000 0.000000 0.954582 1.099771 0.431757 1.122753 3.663015 -9.183908 0.025388 -3.747918 2.076518 -57.175715 3.806621 -44.394932 -178.655660 -64.513964 -177.035867 0.000000 0.000000 0.000000 0.467586 0.715113 0.194188 3.278186 12.408277 -2.989236 -7.996186 -0.954742 0.849536 -47.575833 20.169723 86.736641 -170.986819 68.839557 170.015088 0.000000 0.000000 0.000000 
8.956654 62.278427 52.292969 0.000000 0.000000 0.000000 -12.913015 -43.658877 -4.722579 -44.745112 -13.802778 35.900232 39.695072 -9.445046 2.339500 10.572337 -15.708228 -32.964238 -2.398133 0.437967 0.527838 0.000000 0.000000 0.000000 -15.426990 -38.868896 -4.764836 -9.641626 -3.838817 -54.957430 70.860631 19.467858 -3.469105 -27.153858 -14.983654 23.302252 -10.866800 0.519745 3.645265 0.000000 0.000000 0.000000 -15.681358 -40.011330 -7.580786 23.904759 5.805417 -8.249824 0.836284 1.208022 -0.788989 0.067867 -1.804475 1.580326 0.000000 0.000000 0.000000 1.625746 1.115842 -0.311256 2.652985 13.417773 0.305835 5.173770 21.168570 -5.707368 0.000000 0.000000 0.000000 1.538073 1.203945 -0.259439 1.062790 4.515409 -8.905255 -0.068780 -4.623971 1.750592 -56.734509 2.778172 -45.286190 -179.802271 -63.036622 -177.710034 0.000000 0.000000 0.000000 0.997910 0.807754 -0.629398 3.188075 13.314472 -3.385485 -7.301774 0.512534 0.340842 -48.761663 18.547034 86.862753 -170.090958 69.367784 169.328968 0.000000 0.000000 0.000000 
8.176312 63.767559 48.803051 0.000000 0.000000 0.000000 -11.064451 -42.903290 -2.791186 -44.749825 -12.110464 35.057524 35.496022 -8.424972 2.396116 12.304249 -15.372017 -29.707915 -2.859243 0.191085 0.396826 0.000000 0.000000 0.000000 -13.662571 -37.743236 -2.924712 -6.892050 -7.162137 -51.427930 68.440941 16.878801 -2.980124 -35.702580 -18.402249 18.972821 -4.923551 0.922792 2.431403 0.000000 0.000000 0.000000 -14.620855 -39.933066 -5.618029 22.630708 6.559007 -7.620445 1.260812 1.244627 -1.371913 -0.022676 -1.295227 1.532264 0.000000 0.000000 0.000000 1.827855 1.181627 -0.921102 2.908185 13.017278 -0.069849 5.785734 19.823140 -5.421350 0.000000 0.000000 0.000000 1.953095 1.248445 -0.782203 1.063310 4.826829 -8.550118 -0.310386 -4.432169 1.011266 -57.066435 1.569485 -45.604104 178.725205 -62.385391 -178.840294 0.000000 0.000000 0.000000 1.406997 0.875251 -1.256851 3.151449 14.123991 -4.489225 -6.152892 1.650116 0.301521 -50.160636 17.198334 86.098981 -170.594807 67.639377 169.889221 0.000000 0.000000 0.000000 
